<svg version="1.1" id="Layer_1" xmlns="http://www.w3.org/2000/svg" xmlns:xlink="http://www.w3.org/1999/xlink" x="0px" y="0px"
	 width="100%" viewBox="0 0 500 500" enable-background="new 0 0 500 500" xml:space="preserve">
<path fill="#000000" opacity="1.000000" stroke="none" 
	d="
M220.000000,501.000000 
	C146.666687,501.000000 73.833366,501.000000 1.000039,501.000000 
	C1.000026,334.333405 1.000026,167.666779 1.000013,1.000129 
	C167.666565,1.000086 334.333130,1.000086 500.999756,1.000043 
	C500.999847,167.666534 500.999847,334.333069 500.999939,500.999817 
	C407.500000,501.000000 314.000000,501.000000 220.000000,501.000000 
M306.212311,184.623337 
	C305.493011,184.290497 304.773743,183.957672 304.394012,183.722137 
	C304.394012,183.722137 304.491241,183.382538 304.047272,182.994278 
	C303.365479,182.635742 302.683685,182.277222 302.014008,181.984741 
	C302.014008,181.984741 302.078339,181.965378 301.640656,181.445862 
	C291.689514,174.942139 280.956299,170.508041 268.314117,169.022369 
	C268.060913,169.033539 267.807739,169.044708 266.971283,168.610565 
	C265.835999,168.434708 264.701691,168.112061 263.565308,168.104706 
	C241.257553,167.960419 218.949600,167.844940 196.641525,167.761246 
	C195.546295,167.757126 194.449783,168.096222 193.041138,168.326660 
	C193.041138,187.864380 193.070923,207.165192 193.013397,226.465759 
	C193.003159,229.894547 195.354202,229.538605 197.464142,229.551178 
	C203.413162,229.586624 209.367996,229.369232 215.310623,229.559952 
	C221.564590,229.760666 221.757797,229.725067 221.754105,223.463669 
	C221.748825,214.524536 221.752762,205.585388 221.752762,196.183075 
	C240.338150,197.086411 258.417053,193.906708 276.103180,200.130432 
	C276.103180,200.130432 276.317291,200.038864 276.655731,200.338531 
	C277.355194,200.607880 278.054626,200.877213 279.389557,201.602982 
	C279.887390,201.753754 280.385193,201.904526 281.211578,202.626907 
	C282.756287,203.418259 284.301025,204.209610 286.323303,205.500610 
	C302.079590,215.730103 309.646057,230.641342 311.221710,249.906982 
	C310.996307,253.042419 310.846832,256.185516 310.531586,259.311890 
	C309.477997,269.759918 304.387482,278.441620 298.732758,286.774506 
	C298.732758,286.774506 298.782166,286.455963 298.180603,286.773712 
	C297.636841,287.477661 297.093079,288.181641 296.743317,288.797913 
	C296.743317,288.797913 296.655426,288.604004 296.087921,288.912109 
	C294.542603,290.404419 292.997284,291.896698 291.432434,293.413849 
	C291.432434,293.413849 291.402924,293.425171 290.819702,293.791687 
	C288.189270,295.532257 285.635895,297.405090 282.914734,298.989960 
	C272.492218,305.060394 261.052673,306.463440 249.245377,306.207855 
	C243.647186,306.086670 238.044189,306.187012 232.128738,306.187012 
	C232.128738,315.306763 232.008057,323.619141 232.279282,331.918732 
	C232.313736,332.972687 234.375214,334.807281 235.538086,334.839966 
	C243.025070,335.050537 250.523346,334.860107 259.023682,334.769867 
	C259.657227,334.559235 260.290741,334.348602 261.485962,334.261230 
	C263.103210,333.875488 264.720490,333.489716 267.173035,333.066986 
	C269.131256,332.987000 271.141815,333.168091 273.039764,332.787506 
	C297.572357,327.868164 315.710938,314.011963 328.525635,292.815338 
	C334.046021,283.684174 337.533203,273.878326 338.711487,262.664246 
	C341.796875,246.158463 338.698334,230.597366 331.477417,215.703705 
	C331.477417,215.703705 331.524750,215.755432 331.313263,215.064667 
	C330.526978,213.691986 329.740662,212.319305 328.818909,210.420197 
	C328.547455,209.954346 328.276001,209.488495 327.921234,208.441895 
	C327.469727,207.800934 327.018188,207.159958 326.380798,206.856445 
	C326.380798,206.856445 326.581085,206.515076 326.308594,205.970978 
	C325.724152,205.154480 325.139679,204.337982 324.341858,203.687439 
	C324.341858,203.687439 324.577240,203.554596 324.251251,202.952454 
	C322.523438,201.250687 320.795624,199.548920 318.822296,197.224625 
	C316.168060,194.508713 313.513824,191.792816 310.890137,188.445511 
	C310.254944,187.958389 309.619751,187.471283 308.979370,187.031326 
	C308.979370,187.031326 309.022949,187.012634 308.734528,186.529099 
	C308.132782,186.103439 307.531036,185.677780 306.821075,185.063293 
	C306.821075,185.063293 306.603821,185.075928 306.212311,184.623337 
M159.028336,252.916336 
	C159.028336,256.138733 159.028336,259.361145 159.028336,262.743805 
	C163.830612,262.743805 167.914185,262.743805 172.927795,262.867706 
	C179.614670,262.828796 186.301529,262.789886 193.917755,262.906860 
	C204.275070,262.851562 214.632401,262.796265 225.922134,262.854980 
	C238.594864,262.803131 251.267609,262.751282 264.792145,262.863983 
	C265.870422,262.210022 267.862396,261.586853 267.885620,260.897339 
	C268.118225,253.996262 268.026947,247.084274 268.026947,239.969543 
	C232.004349,239.969543 196.869675,239.956329 161.735229,240.041443 
	C160.803009,240.043701 159.873383,241.113892 158.889542,242.643997 
	C158.979294,245.764709 159.069046,248.885437 159.028336,252.916336 
M192.990570,300.500000 
	C192.990570,311.909241 192.990570,323.318512 192.990570,334.744873 
	C202.992249,334.744873 212.093964,334.744873 221.517426,334.744873 
	C221.517426,314.404694 221.517426,294.349304 221.517426,273.986633 
	C212.001358,273.986633 202.727966,273.986633 192.990143,273.986633 
	C192.990143,282.585144 192.990143,291.042572 192.990570,300.500000 
z"/>
<path fill="#63B144" opacity="1.000000" stroke="none" 
	d="
M267.554565,169.055878 
	C267.807739,169.044708 268.060913,169.033539 268.916962,169.339371 
	C272.306030,170.544785 275.146942,171.292313 277.868256,172.348083 
	C285.963501,175.488846 294.011719,178.750793 302.078339,181.965393 
	C302.078339,181.965378 302.014008,181.984741 302.181122,182.200592 
	C303.062561,182.738480 303.776917,183.060516 304.491241,183.382538 
	C304.491241,183.382538 304.394012,183.722137 304.480164,183.822220 
	C305.245483,184.306854 305.924652,184.691391 306.603821,185.075928 
	C306.603821,185.075928 306.821075,185.063293 307.036407,185.384689 
	C307.842133,186.141602 308.432556,186.577118 309.022949,187.012634 
	C309.022949,187.012634 308.979370,187.031326 309.112549,187.262421 
	C309.783661,188.021317 310.321625,188.549103 310.859589,189.076904 
	C313.513824,191.792816 316.168060,194.508713 319.052673,197.862274 
	C321.047791,200.184799 322.812500,201.869705 324.577240,203.554596 
	C324.577240,203.554596 324.341858,203.687439 324.469940,203.932800 
	C325.259033,204.957138 325.920074,205.736099 326.581085,206.515076 
	C326.581085,206.515076 326.380798,206.856445 326.519287,206.988037 
	C327.106750,207.753967 327.555664,208.388306 328.004578,209.022644 
	C328.276001,209.488495 328.547455,209.954346 328.820801,210.953766 
	C329.723358,212.910034 330.624054,214.332733 331.524750,215.755432 
	C331.524750,215.755432 331.477417,215.703705 331.482178,216.077972 
	C331.537476,217.109482 331.406891,217.849976 331.665100,218.411774 
	C338.227905,232.690201 338.545563,247.854340 338.071655,263.134613 
	C337.533203,273.878326 334.046021,283.684174 328.525635,292.815338 
	C315.710938,314.011963 297.572357,327.868164 273.039764,332.787506 
	C271.141815,333.168091 269.131256,332.987000 266.504517,333.171204 
	C264.198792,333.562927 262.561523,333.850433 260.924286,334.137939 
	C260.290741,334.348602 259.657227,334.559235 258.129486,334.653320 
	C251.597412,334.361786 245.954132,333.952820 240.323334,334.083374 
	C235.537811,334.194305 233.692856,332.215454 233.946030,327.545715 
	C234.161713,323.567261 233.959457,319.567230 233.983337,315.577026 
	C234.026215,308.412842 234.422958,307.709045 241.682907,308.069458 
	C253.184692,308.640503 264.569336,308.346680 275.371063,304.034912 
	C281.353851,301.646698 288.126221,300.063995 291.402924,293.425171 
	C291.402924,293.425171 291.432434,293.413849 291.811523,293.399384 
	C293.678925,291.791290 295.167175,290.197662 296.655426,288.604004 
	C296.655426,288.604004 296.743317,288.797913 296.925171,288.653381 
	C297.665436,287.824524 298.223785,287.140259 298.782166,286.455963 
	C298.782166,286.455963 298.732758,286.774506 298.914246,286.622742 
	C308.378479,279.867859 314.495544,260.910706 311.187958,248.996552 
	C309.646057,230.641342 302.079590,215.730103 285.947876,204.952576 
	C284.009308,203.621460 282.446167,202.838379 280.883026,202.055298 
	C280.385193,201.904526 279.887390,201.753754 278.903015,201.221039 
	C277.716736,200.572357 277.017029,200.305618 276.317291,200.038864 
	C276.317291,200.038864 276.103180,200.130432 275.825378,199.772736 
	C269.315643,197.953339 263.143982,195.689407 256.837860,195.215500 
	C247.060516,194.480728 237.189972,195.058945 227.361801,194.902344 
	C220.690765,194.796051 220.004456,195.323151 219.987350,202.169525 
	C219.972794,208.001068 219.999863,213.832687 219.990036,219.664261 
	C219.976532,227.689621 219.782913,227.899597 212.003632,227.978958 
	C208.005310,228.019760 203.998764,227.839127 200.009583,228.035660 
	C195.420685,228.261749 193.848480,226.166229 193.902771,221.746002 
	C194.060318,208.918335 193.927490,196.087418 193.984177,183.258118 
	C194.056305,166.933609 192.431595,169.258072 208.429565,168.975433 
	C209.872223,168.979630 210.921707,168.977310 212.352982,168.978912 
	C213.498413,168.980148 214.262039,168.977493 215.394135,168.979889 
	C216.499619,168.981766 217.236618,168.978577 218.420685,168.981934 
	C221.253815,168.983719 223.639908,168.978943 226.395355,168.979965 
	C227.503876,168.984283 228.243011,168.982803 229.385391,168.987122 
	C230.864029,168.989731 231.939438,168.986557 233.428284,168.989105 
	C235.219452,168.989273 236.597183,168.983749 238.445068,168.984299 
	C243.713257,168.997711 248.511292,169.002243 253.309311,169.013214 
	C258.057739,169.024063 262.806152,169.041397 267.554565,169.055878 
z"/>
<path fill="#64B244" opacity="1.000000" stroke="none" 
	d="
M263.940308,262.699463 
	C251.267609,262.751282 238.594864,262.803131 225.066956,262.667084 
	C213.803986,262.569794 203.396194,262.660370 192.988403,262.750977 
	C186.301529,262.789886 179.614670,262.828796 172.086945,262.674805 
	C170.282822,262.330139 169.324615,262.106659 168.355438,262.038086 
	C160.949600,261.514252 160.958511,261.522095 159.822388,254.350677 
	C159.696198,253.554108 159.384476,252.786942 159.158813,252.006149 
	C159.069046,248.885437 158.979294,245.764709 159.337067,242.150635 
	C162.926208,241.439529 166.067383,241.041382 169.209564,241.033142 
	C190.464386,240.977432 211.719421,241.001129 232.974396,241.005676 
	C241.775269,241.007553 250.576370,240.990570 259.376953,241.047287 
	C266.337524,241.092133 267.308563,241.765259 266.854645,248.850220 
	C266.556152,253.509750 264.957001,258.085938 263.940308,262.699463 
z"/>
<path fill="#75AF58" opacity="1.000000" stroke="none" 
	d="
M226.025986,168.974152 
	C223.639908,168.978943 221.253815,168.983719 218.184662,168.877991 
	C216.676285,168.836624 215.850983,168.905731 215.025665,168.974854 
	C214.262039,168.977493 213.498413,168.980148 212.083832,168.857178 
	C210.300705,168.810684 209.168549,168.889801 208.036377,168.968933 
	C192.431595,169.258072 194.056305,166.933609 193.984177,183.258118 
	C193.927490,196.087418 194.060318,208.918335 193.902771,221.746002 
	C193.848480,226.166229 195.420685,228.261749 200.009583,228.035660 
	C203.998764,227.839127 208.005310,228.019760 212.003632,227.978958 
	C219.782913,227.899597 219.976532,227.689621 219.990036,219.664261 
	C219.999863,213.832687 219.972794,208.001068 219.987350,202.169525 
	C220.004456,195.323151 220.690765,194.796051 227.361801,194.902344 
	C237.189972,195.058945 247.060516,194.480728 256.837860,195.215500 
	C263.143982,195.689407 269.315643,197.953339 275.733856,199.700775 
	C258.417053,193.906708 240.338150,197.086411 221.752762,196.183075 
	C221.752762,205.585388 221.748825,214.524536 221.754105,223.463669 
	C221.757797,229.725067 221.564590,229.760666 215.310623,229.559952 
	C209.367996,229.369232 203.413162,229.586624 197.464142,229.551178 
	C195.354202,229.538605 193.003159,229.894547 193.013397,226.465759 
	C193.070923,207.165192 193.041138,187.864380 193.041138,168.326660 
	C194.449783,168.096222 195.546295,167.757126 196.641525,167.761246 
	C218.949600,167.844940 241.257553,167.960419 263.565308,168.104706 
	C264.701691,168.112061 265.835999,168.434708 267.262939,168.833221 
	C262.806152,169.041397 258.057739,169.024063 253.309311,169.013214 
	C248.511292,169.002243 243.713257,168.997711 238.148987,168.852554 
	C235.926758,168.804276 234.470795,168.893829 233.014832,168.983398 
	C231.939438,168.986557 230.864029,168.989731 229.148468,168.882568 
	C227.680878,168.839554 226.853424,168.906860 226.025986,168.974152 
z"/>
<path fill="#649E4E" opacity="1.000000" stroke="none" 
	d="
M192.990356,300.000000 
	C192.990143,291.042572 192.990143,282.585144 192.990143,273.986633 
	C202.727966,273.986633 212.001358,273.986633 221.517426,273.986633 
	C221.517426,294.349304 221.517426,314.404694 221.517426,334.744873 
	C212.093964,334.744873 202.992249,334.744873 192.990570,334.744873 
	C192.990570,323.318512 192.990570,311.909241 192.990356,300.000000 
M220.021759,280.818512 
	C220.209702,276.490601 217.922623,274.886536 213.840012,274.974609 
	C209.009552,275.078766 204.174561,275.049347 199.342728,274.986786 
	C195.907516,274.942322 194.011200,276.299683 194.018738,279.963501 
	C194.052399,296.294708 194.054611,312.626038 194.015015,328.957214 
	C194.006241,332.580322 195.783813,334.048706 199.266739,334.000854 
	C203.765167,333.938995 208.265778,334.044952 212.764587,333.997406 
	C219.149963,333.929901 219.995819,333.143860 220.020203,326.746521 
	C220.077347,311.748444 220.039474,296.750031 220.021759,280.818512 
z"/>
<path fill="#70A552" opacity="1.000000" stroke="none" 
	d="
M291.111328,293.608429 
	C288.126221,300.063995 281.353851,301.646698 275.371063,304.034912 
	C264.569336,308.346680 253.184692,308.640503 241.682907,308.069458 
	C234.422958,307.709045 234.026215,308.412842 233.983337,315.577026 
	C233.959457,319.567230 234.161713,323.567261 233.946030,327.545715 
	C233.692856,332.215454 235.537811,334.194305 240.323334,334.083374 
	C245.954132,333.952820 251.597412,334.361786 257.626587,334.669067 
	C250.523346,334.860107 243.025070,335.050537 235.538086,334.839966 
	C234.375214,334.807281 232.313736,332.972687 232.279282,331.918732 
	C232.008057,323.619141 232.128738,315.306763 232.128738,306.187012 
	C238.044189,306.187012 243.647186,306.086670 249.245377,306.207855 
	C261.052673,306.463440 272.492218,305.060394 282.914734,298.989960 
	C285.635895,297.405090 288.189270,295.532257 291.111328,293.608429 
z"/>
<path fill="#66994F" opacity="1.000000" stroke="none" 
	d="
M264.366211,262.781738 
	C264.957001,258.085938 266.556152,253.509750 266.854645,248.850220 
	C267.308563,241.765259 266.337524,241.092133 259.376953,241.047287 
	C250.576370,240.990570 241.775269,241.007553 232.974396,241.005676 
	C211.719421,241.001129 190.464386,240.977432 169.209564,241.033142 
	C166.067383,241.041382 162.926208,241.439529 159.363556,241.671677 
	C159.873383,241.113892 160.803009,240.043701 161.735229,240.041443 
	C196.869675,239.956329 232.004349,239.969543 268.026947,239.969543 
	C268.026947,247.084274 268.118225,253.996262 267.885620,260.897339 
	C267.862396,261.586853 265.870422,262.210022 264.366211,262.781738 
z"/>
<path fill="#649E4E" opacity="1.000000" stroke="none" 
	d="
M338.391571,262.899414 
	C338.545563,247.854340 338.227905,232.690201 331.665100,218.411774 
	C331.406891,217.849976 331.537476,217.109482 331.508728,216.055084 
	C338.698334,230.597366 341.796875,246.158463 338.391571,262.899414 
z"/>
<path fill="#70A552" opacity="1.000000" stroke="none" 
	d="
M311.204834,249.451767 
	C314.495544,260.910706 308.378479,279.867859 298.755005,286.597931 
	C304.387482,278.441620 309.477997,269.759918 310.531586,259.311890 
	C310.846832,256.185516 310.996307,253.042419 311.204834,249.451767 
z"/>
<path fill="#70A552" opacity="1.000000" stroke="none" 
	d="
M301.859497,181.705627 
	C294.011719,178.750793 285.963501,175.488846 277.868256,172.348083 
	C275.146942,171.292313 272.306030,170.544785 269.292816,169.396393 
	C280.956299,170.508041 291.689514,174.942139 301.859497,181.705627 
z"/>
<path fill="#66994F" opacity="1.000000" stroke="none" 
	d="
M193.453079,262.828918 
	C203.396194,262.660370 213.803986,262.569794 224.600739,262.610077 
	C214.632401,262.796265 204.275070,262.851562 193.453079,262.828918 
z"/>
<path fill="#66994F" opacity="1.000000" stroke="none" 
	d="
M159.093567,252.461243 
	C159.384476,252.786942 159.696198,253.554108 159.822388,254.350677 
	C160.958511,261.522095 160.949600,261.514252 168.355438,262.038086 
	C169.324615,262.106659 170.282822,262.330139 171.621918,262.612854 
	C167.914185,262.743805 163.830612,262.743805 159.028336,262.743805 
	C159.028336,259.361145 159.028336,256.138733 159.093567,252.461243 
z"/>
<path fill="#649E4E" opacity="1.000000" stroke="none" 
	d="
M324.414246,203.253540 
	C322.812500,201.869705 321.047791,200.184799 319.175446,198.173523 
	C320.795624,199.548920 322.523438,201.250687 324.414246,203.253540 
z"/>
<path fill="#70A552" opacity="1.000000" stroke="none" 
	d="
M296.371674,288.758057 
	C295.167175,290.197662 293.678925,291.791290 291.821289,293.386963 
	C292.997284,291.896698 294.542603,290.404419 296.371674,288.758057 
z"/>
<path fill="#75AF58" opacity="1.000000" stroke="none" 
	d="
M281.047302,202.341110 
	C282.446167,202.838379 284.009308,203.621460 285.709106,204.702759 
	C284.301025,204.209610 282.756287,203.418259 281.047302,202.341110 
z"/>
<path fill="#70A552" opacity="1.000000" stroke="none" 
	d="
M261.205139,334.199585 
	C262.561523,333.850433 264.198792,333.562927 266.086884,333.189697 
	C264.720490,333.489716 263.103210,333.875488 261.205139,334.199585 
z"/>
<path fill="#649E4E" opacity="1.000000" stroke="none" 
	d="
M331.419006,215.410049 
	C330.624054,214.332733 329.723358,212.910034 328.888519,211.216980 
	C329.740662,212.319305 330.526978,213.691986 331.419006,215.410049 
z"/>
<path fill="#649E4E" opacity="1.000000" stroke="none" 
	d="
M326.444824,206.243027 
	C325.920074,205.736099 325.259033,204.957138 324.576599,203.849823 
	C325.139679,204.337982 325.724152,205.154480 326.444824,206.243027 
z"/>
<path fill="#649E4E" opacity="1.000000" stroke="none" 
	d="
M327.962891,208.732269 
	C327.555664,208.388306 327.106750,207.753967 326.612244,206.819305 
	C327.018188,207.159958 327.469727,207.800934 327.962891,208.732269 
z"/>
<path fill="#75AF58" opacity="1.000000" stroke="none" 
	d="
M276.486511,200.188690 
	C277.017029,200.305618 277.716736,200.572357 278.585266,200.992828 
	C278.054626,200.877213 277.355194,200.607880 276.486511,200.188690 
z"/>
<path fill="#70A552" opacity="1.000000" stroke="none" 
	d="
M310.874878,188.761200 
	C310.321625,188.549103 309.783661,188.021317 309.115112,187.238846 
	C309.619751,187.471283 310.254944,187.958389 310.874878,188.761200 
z"/>
<path fill="#70A552" opacity="1.000000" stroke="none" 
	d="
M304.269257,183.188416 
	C303.776917,183.060516 303.062561,182.738480 302.175049,182.167572 
	C302.683685,182.277222 303.365479,182.635742 304.269257,183.188416 
z"/>
<path fill="#70A552" opacity="1.000000" stroke="none" 
	d="
M308.878723,186.770874 
	C308.432556,186.577118 307.842133,186.141602 307.090515,185.479111 
	C307.531036,185.677780 308.132782,186.103439 308.878723,186.770874 
z"/>
<path fill="#70A552" opacity="1.000000" stroke="none" 
	d="
M306.408081,184.849640 
	C305.924652,184.691391 305.245483,184.306854 304.310364,183.773560 
	C304.773743,183.957672 305.493011,184.290497 306.408081,184.849640 
z"/>
<path fill="#70A552" opacity="1.000000" stroke="none" 
	d="
M298.481384,286.614838 
	C298.223785,287.140259 297.665436,287.824524 296.828186,288.697205 
	C297.093079,288.181641 297.636841,287.477661 298.481384,286.614838 
z"/>
<path fill="#78B359" opacity="1.000000" stroke="none" 
	d="
M233.428284,168.989105 
	C234.470795,168.893829 235.926758,168.804276 237.678802,168.846466 
	C236.597183,168.983749 235.219452,168.989273 233.428284,168.989105 
z"/>
<path fill="#78B359" opacity="1.000000" stroke="none" 
	d="
M208.429565,168.975433 
	C209.168549,168.889801 210.300705,168.810684 211.702026,168.853271 
	C210.921707,168.977310 209.872223,168.979630 208.429565,168.975433 
z"/>
<path fill="#78B359" opacity="1.000000" stroke="none" 
	d="
M226.395355,168.979950 
	C226.853424,168.906860 227.680878,168.839554 228.745239,168.876785 
	C228.243011,168.982803 227.503876,168.984283 226.395355,168.979950 
z"/>
<path fill="#78B359" opacity="1.000000" stroke="none" 
	d="
M215.394135,168.979904 
	C215.850983,168.905731 216.676285,168.836624 217.737610,168.871445 
	C217.236618,168.978577 216.499619,168.981766 215.394135,168.979904 
z"/>
<path fill="#64B244" opacity="1.000000" stroke="none" 
	d="
M220.030914,281.285126 
	C220.039474,296.750031 220.077347,311.748444 220.020203,326.746521 
	C219.995819,333.143860 219.149963,333.929901 212.764587,333.997406 
	C208.265778,334.044952 203.765167,333.938995 199.266739,334.000854 
	C195.783813,334.048706 194.006241,332.580322 194.015015,328.957214 
	C194.054611,312.626038 194.052399,296.294708 194.018738,279.963501 
	C194.011200,276.299683 195.907516,274.942322 199.342728,274.986786 
	C204.174561,275.049347 209.009552,275.078766 213.840012,274.974609 
	C217.922623,274.886536 220.209702,276.490601 220.030914,281.285126 
z"/>
</svg>